<svg width="63" height="14" viewBox="0 0 63 14" fill="none" xmlns="http://www.w3.org/2000/svg">
<g clip-path="url(#clip0_3_2253)">
<path d="M14.2488 12.9676H11.2598L10.5702 7.67304C10.5121 7.19807 10.468 6.78385 10.4415 6.4267C10.4045 6.07508 10.3674 5.57618 10.3286 4.93C10.2317 5.50991 10.0835 6.15608 9.88073 6.87038C9.8384 7.01029 9.80666 7.12995 9.78374 7.22936L8.18956 12.9676H6.05752L4.46335 7.22936C4.44747 7.13363 4.41573 7.01397 4.36635 6.87038C4.14239 6.11742 3.99426 5.47125 3.92549 4.93C3.88316 5.54304 3.8426 6.00144 3.80557 6.30152C3.7897 6.458 3.76501 6.68628 3.73327 6.9882C3.70153 7.29011 3.67684 7.51839 3.66097 7.67488L2.97145 12.9695H0L1.81108 0.719727H4.97652L6.74704 7.03606C6.77878 7.15388 6.79994 7.22936 6.81052 7.2625C6.96571 7.78717 7.06976 8.26582 7.12266 8.70213C7.13324 8.55117 7.1738 8.30633 7.24258 7.96575C7.26374 7.8829 7.34486 7.56626 7.48241 7.02134L9.27233 0.719727H12.4466L14.2488 12.9676Z" fill="#FDE7EF"/>
<path d="M18.9734 12.9675V4.51745H21.8267V12.9675H18.9734ZM19.3331 2.34144H19.349C19.349 2.02847 19.4531 1.77258 19.6611 1.57191C19.8692 1.35468 20.1214 1.24606 20.4141 1.24606C20.7245 1.24606 20.9785 1.34916 21.1795 1.55534C21.3805 1.76153 21.4793 2.02295 21.4793 2.34144C21.4793 2.66544 21.3752 2.93238 21.1671 3.14409C20.9643 3.36133 20.7122 3.46994 20.4141 3.46994C20.1091 3.46994 19.8534 3.3558 19.6453 3.12753C19.4372 2.91581 19.3331 2.6544 19.3331 2.34144Z" fill="#FDE7EF"/>
<path d="M27.4238 12.9675V4.51746H30.0355V6.23323C30.4041 5.56312 30.8414 5.06238 31.3475 4.72733C31.8378 4.40884 32.4338 4.25052 33.1339 4.25052C33.663 4.25052 34.1321 4.33336 34.543 4.50089C34.9503 4.69051 35.2801 4.9464 35.5323 5.27041C35.7615 5.59442 35.9149 5.93684 35.989 6.29951C36.0807 6.76159 36.1266 7.37279 36.1266 8.13126V12.9675H33.2574V8.44055C33.2574 7.75387 33.1533 7.26417 32.9453 6.96778C32.7372 6.66034 32.3986 6.50754 31.9295 6.50754C31.344 6.50754 30.912 6.73582 30.6351 7.19422C30.3635 7.65077 30.2277 8.39268 30.2277 9.41994V12.9675H27.4238Z" fill="#FDE7EF"/>
<path d="M50.1233 -9.15527e-05V12.9676H47.494V11.5961C47.1307 12.1705 46.7198 12.5939 46.2596 12.8682C45.8328 13.1536 45.3302 13.2953 44.7536 13.2953C43.6214 13.2953 42.7167 12.883 42.0413 12.0564C41.3659 11.2316 41.0273 10.1289 41.0273 8.75184C41.0273 7.41346 41.3659 6.32361 42.0449 5.48045C42.7185 4.66122 43.5897 4.25069 44.6566 4.25069C45.3408 4.25069 45.8963 4.38324 46.323 4.64465C46.7339 4.88582 47.1184 5.31292 47.4764 5.92964C47.4552 5.77869 47.434 5.55041 47.4129 5.24297C47.3917 4.90791 47.3811 4.63361 47.3811 4.4219V-9.15527e-05H50.1233ZM47.591 8.75552C47.591 8.09277 47.4287 7.57546 47.1025 7.20175C46.7551 6.82435 46.2966 6.63473 45.7235 6.63473C45.1468 6.63473 44.6918 6.82435 44.3603 7.20175C44.0288 7.58099 43.863 8.0983 43.863 8.75552C43.863 9.41827 44.0288 9.93926 44.3603 10.3167C44.6865 10.6904 45.1398 10.8763 45.7235 10.8763C46.3001 10.8763 46.7604 10.6904 47.1025 10.3167C47.427 9.94294 47.591 9.42195 47.591 8.75552Z" fill="#FDE7EF"/>
<path d="M58.2596 4.07199H59.7163V7.2274H62.6471V8.70385H59.7163V11.8721H58.2596V8.70201H55.3164V7.22556H58.2596V4.07199Z" fill="#FDE7EF" stroke="#FDE7EF" stroke-width="1.12163" stroke-miterlimit="10"/>
</g>
<defs>
<clipPath id="clip0_3_2253">
<rect width="63" height="13.2936" fill="white"/>
</clipPath>
</defs>
</svg>
